<svg xmlns="http://www.w3.org/2000/svg" width="360" height="126" viewBox="59 119 180 63"><defs><clipPath id="clip-1"><path fill="none" d="M0 0h299.991v299.991H0z"/></clipPath></defs><g fill="none" stroke-miterlimit="10" clip-path="url(#clip-1)" font-family="none" font-size="none" font-weight="none" style="mix-blend-mode:normal" text-anchor="none"><path fill="#f16b02" d="M68.325 120.153c1.302-.175 4.542-.092 6.04-.09l11.684.007 18.481-.006c3.378 0 6.817-.044 10.185.071 1.02.035 2.128.326 2.986.798 1.456.801 3.423 2.962 3.683 4.6.35 2.205.233 5.507.234 7.779l-.001 13.703.006 16.873c.001 2.946.03 5.877-.047 8.823-.101 3.85-2.588 6.2-6.187 7.012-2.66.182-6.586.06-9.338.065l-17.325.013-13.123.003c-3.058.003-7.496.482-10.087-1.058-4.293-2.553-3.569-7.159-3.572-11.395v-12.754l.002-18.017c.002-3.197-.061-6.407.092-9.598.177-3.69 2.69-6.191 6.287-6.83"/><path fill="#fefefe" d="M77.286 133.908c1.827.245 9.23 2.684 11.398 3.349l12.414 3.886c.664.205 6.877 1.126 4.392 3.84-.462.506-3.096.467-4.21 1.015-3.303 1.623-5.754 3.814-8.333 6.38-2.055 2.25-4.276 5.186-5.322 8.084-.265 1.307-.175 4.138-2.36 3.592-1.38-.345-2.592-5.83-2.994-7.144l-4.548-14.926c-.534-1.767-1.159-3.49-1.68-5.25-.42-1.42-.032-2.226 1.243-2.826m23.919 19.975a5.999 5.999 0 1 1 1.074 11.95 5.999 5.999 0 0 1-1.074-11.95"/><path fill="#f16b02" d="M131.968 153.227q4.052.04 8.104.003c1.792-.009 3.516-.073 5.302.103 6.013.596 7.13 6.607 4.51 11.151 1.874 1.432 2.918 2.699 3.246 5.12.286 2.106-.032 3.768-1.24 5.536-2.639 3.165-6.469 2.546-10.175 2.535a587 587 0 0 0-9.767.008c-.262-4.957-.017-10.093-.086-15.07-.043-3.096-.002-6.298.106-9.386m5.304 19.468c1.957.019 3.925.053 5.882.061 1.593.006 2.85.232 4.139-.83 3.47-5.757-7.1-4.376-10.055-4.35.002 1.676-.025 3.45.034 5.119m-.011-9.774c2.026.03 6.401.365 7.964-.5.439-.633.953-2.183.698-2.9-.886-2.49-6.433-1.735-8.583-1.691-.24.54-.098 4.308-.08 5.091m93.49-9.681q2.423-.035 4.848-.003c.073.97.076 1.908.072 2.88-.034 6.94.072 13.893-.016 20.83-.542.343-.976.65-1.572.89-.5-.235-2.65-.166-3.347-.165l-.02-1.986c-1.835 1.682-2.982 2.17-5.492 2.293-2.914.186-6.122-.229-8.348-2.315-3.693-3.46-3.677-11.468-.201-15.056 2.02-2.083 5.275-2.573 8.05-2.499 2.693.074 4.13.516 6.023 2.482q-.046-3.675.003-7.35m-4.479 19.9c6.796-1.365 5.844-10.955-2.195-10.2-1.64.19-2.949.516-4.024 1.92-1.616 2.113-1.283 5.737.96 7.296 1.602 1.128 3.414 1.106 5.26.984m-47.277-15.016.278.006c2.97.06 4.361.295 6.462 2.48-.04-.691-.012-1.43-.002-2.127l4.839-.02c.121 6.278.028 12.89.03 19.188-1.154-.002-2.185.097-3.325.139-1.759.063-1.68-.898-1.552-2.18-.545.522-1.06.911-1.65 1.376a8.9 8.9 0 0 1-3.252.95c-2.93.298-6.335-.017-8.695-2.002-3.935-3.312-4.066-11.149-.806-14.959 2.012-2.351 4.757-2.692 7.673-2.85m2.249 15.01c3.253-.597 5.006-2.989 4.325-6.304a4.68 4.68 0 0 0-2.115-3.072c-1.418-.884-2.89-.917-4.49-.832-.701.1-1.25.172-1.938.428-3.693 1.374-4.03 6.882-.813 8.952 1.52.978 3.254.94 5.03.829"/><path fill="#fefefe" d="M155.203 121.906c7.439-.405 13.087.568 15.32 8.604q-2.64.024-5.28 0c-.882-1.657-2.048-3.083-4.085-3.288-4.026-.415-9.64-.718-10.491 4.413-1.278 7.707 1.921 10.594 9.448 9.834 1.938-.196 2.552-.397 4.057-1.621.36-.445.72-1.195.998-1.72q2.677-.018 5.354.026c-1.214 4.517-3.996 7.343-8.654 8.335-3.882.804-8.33.485-11.759-1.693-5.768-3.665-6.302-12.915-2.844-18.297 1.85-2.882 4.681-3.959 7.936-4.593m53.426.156c1.476.08 3.163.052 4.654.06.192 1.428.133 3.847.129 5.33-.01 2.568.03 5.226-.063 7.781 2.307-2.319 4.535-5.534 7.038-7.905 1.946.008 3.886.037 5.83-.05-1.823 2.362-5.551 6.257-7.674 8.627.615 1.108 3.857 4.967 4.812 6.105a541 541 0 0 0 3.576 4.467c-1.922.02-3.862.059-5.782-.002-1.06-.924-4.717-5.728-5.747-7.05-.783.8-1.292 1.347-1.99 2.217a355 355 0 0 0-.012 4.837c-1.633.062-3.28.03-4.915.016-.07-5.037.015-10.168-.019-15.218-.013-2.086-.136-7.531.163-9.215m-13.871 4.994c2.25-.445 6.42.133 8.367 1.478 2.517 1.738 3.36 3.426 3.998 6.23-1.623.028-3.289.082-4.909.007-2.144-2.848-3.382-3.315-6.99-2.991-3.328.298-5.015 3.21-4.402 6.354.702 3.586 4.489 4.39 7.587 3.768 1.652-.326 2.614-1.142 3.5-2.514.603-.786 4.164-.494 5.237-.51-1.239 8.474-11.733 10.006-17.863 5.871-4.263-2.874-4.404-10.567-1.465-14.364 1.708-2.206 4.258-3.013 6.94-3.329"/><path fill="#f16b02" d="m203.546 158.127.132-.002c2.483-.013 4.966.686 6.728 2.52 2.842 2.959 2.455 6.703 2.452 10.458l-.01 6.578-4.887.007c-.188-1.75-.147-4.967-.056-6.738.295-5.724-.523-8.912-7.365-7.824-2.812.916-3.135 3.065-3.114 5.688.023 2.95.06 5.92.033 8.87l-4.833-.01c-.182-1.308-.094-4.97-.094-6.48l.033-12.696 4.83-.037c.04.633.044 1.312.06 1.951 2.33-1.998 2.996-2.099 6.09-2.285"/><path fill="#fefefe" d="M138.058 122.145c1.582-.072 3.592-.012 5.19.006.117 3.13.017 6.823.015 10.015q.042 7.166 0 14.333a437 437 0 0 1-5.223-.024c-.06-1.087-.03-2.398-.032-3.502-.004-4.625.107-9.51.003-14.103-1.747 2.088-3.52 2.466-6.022 2.848q-.039-2.2-.015-4.401c3.903-.74 4.764-1.257 6.084-5.172"/><path fill="#f16b02" d="M159.936 161.648c3.136-3.505 4.995-3.189 9.37-3.164.05 1.355.023 2.889.028 4.257-3.713-.137-6.432-.124-8.737 3.305-1.02 2.316-.64 8.782-.64 11.656-1.618-.038-3.288-.016-4.908-.015-.22-4.222.066-8.656-.045-12.898a96 96 0 0 1 .063-6.275c1.51-.056 3.296-.022 4.827-.027.074.948.042 2.187.042 3.161"/><path fill="#fefefe" d="M172.644 122.05c1.716.087 2.937.073 4.649.025.218 3.06.009 8.372.015 11.695.007 3.77.208 9.153-.033 12.725-.896.086-3.832-.003-4.872-.013-.237-7.163.175-14.543-.029-21.728-.019-.667-.062-2.158.27-2.705m6.96 5.305 4.626-.063c.151 2.128.258 18.54-.136 19.223l-4.692-.012c-.164-1.931-.197-18.49.202-19.148"/><path fill="#f16b02" d="M179.656 122.072c1.485-.04 3.079-.01 4.574-.008.05.732.288 2.776-.265 3.19q-2.329-.03-4.653-.087c-.021-.834-.258-2.577.344-3.095"/></g></svg>